<svg width="40" height="40" viewBox="0 0 40 40" fill="none" xmlns="http://www.w3.org/2000/svg">
<rect width="40" height="40" rx="10" fill="#C94654"/>
<path d="M13 17.5C13 17.5 10.4285 18.5 10 22M27 17.5C27 17.5 29.5715 18.5 30 22M17 17.5C17 17.5 19.4 18.0835 20 21C20.6 18.0835 23 17.5 23 17.5M18 25C18 25 15.9 25.375 15 28M22 25C22 25 24.1 25.375 25 28" stroke="white" stroke-linecap="round"/>
<path d="M20 26C21.3807 26 22.5 24.8807 22.5 23.5C22.5 22.1193 21.3807 21 20 21C18.6193 21 17.5 22.1193 17.5 23.5C17.5 24.8807 18.6193 26 20 26Z" stroke="white" stroke-linecap="round" stroke-linejoin="round"/>
<path d="M25 18C26.6569 18 28 16.6569 28 15C28 13.3431 26.6569 12 25 12C23.3431 12 22 13.3431 22 15C22 16.6569 23.3431 18 25 18Z" stroke="white" stroke-linecap="round" stroke-linejoin="round"/>
<path d="M15 18C16.6569 18 18 16.6569 18 15C18 13.3431 16.6569 12 15 12C13.3431 12 12 13.3431 12 15C12 16.6569 13.3431 18 15 18Z" stroke="white" stroke-linecap="round" stroke-linejoin="round"/>
</svg>
