<svg width="48" height="34" viewBox="0 0 48 34" fill="none" xmlns="http://www.w3.org/2000/svg">
<g clip-path="url(#clip0_2_1513)">
<path d="M27.2719 8.31466C28.0942 7.49239 28.6081 6.3275 28.6081 5.05984C28.6081 2.49024 26.5525 0.43457 23.9829 0.43457C22.3726 0.43457 20.9336 1.25684 20.1113 2.52451C19.9058 2.73007 1.50749 25.411 1.33619 25.6851C0.513919 26.5074 0 27.6723 0 28.9399C0 31.5095 2.05567 33.5652 4.62527 33.5652C6.23555 33.5652 7.67452 32.7429 8.49679 31.4753C8.70235 31.2697 27.1006 8.58875 27.2719 8.31466Z" fill="#C94654"/>
<path d="M37.9272 19.0727C38.7494 18.2504 39.2634 17.0856 39.2634 15.8179C39.2634 13.2483 37.2077 11.1926 34.6381 11.1926C33.0278 11.1926 31.5888 12.0149 30.7666 13.2826C30.561 13.4881 20.8993 25.411 20.728 25.6851C19.9058 26.5074 19.3918 27.6723 19.3918 28.9399C19.3918 31.5095 21.4475 33.5652 24.0171 33.5652C25.6274 33.5652 27.0664 32.7429 27.8886 31.4753C28.0942 31.2697 37.7559 19.3468 37.9272 19.0727Z" fill="#C94654"/>
<path d="M48 5.05984C48 7.62943 45.9444 9.6851 43.3748 9.6851C40.8052 9.6851 38.7495 7.62943 38.7495 5.05984C38.7495 2.49024 40.8052 0.43457 43.3748 0.43457C45.9444 0.43457 48 2.49024 48 5.05984Z" fill="#C94654"/>
<path d="M9.25054 5.05984C9.25054 7.62943 7.19486 9.6851 4.62527 9.6851C2.05567 9.6851 0 7.59517 0 5.05984C0 2.49024 2.05567 0.43457 4.62527 0.43457C7.1606 0.43457 9.25054 2.49024 9.25054 5.05984Z" fill="#C94654"/>
</g>
<defs>
<clipPath id="clip0_2_1513">
<rect width="48" height="33.1306" fill="white" transform="translate(0 0.43457)"/>
</clipPath>
</defs>
</svg>
